<svg xmlns="http://www.w3.org/2000/svg" xmlns:xlink="http://www.w3.org/1999/xlink" version="1.1" width="1000" height="1000" viewBox="0 0 1000 1000" xml:space="preserve">
<desc>Created with Fabric.js 3.5.0</desc>
<defs>
</defs>
<rect x="0" y="0" width="100%" height="100%" fill="rgba(255,255,255,0)"/>
<g transform="matrix(0.8599 0 0 0.8599 497.5045 423.2651)" id="548451">
<g style="">
		<g transform="matrix(44.7956 0 0 44.7956 0.0001 0.0001)" id="818947">
<path style="stroke: none; stroke-width: 0; stroke-dasharray: none; stroke-linecap: butt; stroke-dashoffset: 0; stroke-linejoin: miter; stroke-miterlimit: 4; is-custom-font: none; font-file-url: none; fill: rgb(57,112,228); fill-rule: nonzero; opacity: 1;" vector-effect="non-scaling-stroke" transform=" translate(-12, -12.1153)" d="M 11.1142 1.43752 C 11.6726 1.16175 12.3274 1.16175 12.8858 1.43752 L 19.9628 4.9333 C 20.5056 5.20144 20.8978 5.70105 21.0293 6.29205 L 22.7955 14.2294 C 22.925 14.8114 22.7882 15.4208 22.4222 15.8914 L 17.496 22.2276 C 17.1171 22.7149 16.5344 23 15.9171 23 H 8.08294 C 7.46563 23 6.88291 22.7149 6.504 22.2276 L 1.57778 15.8914 C 1.21185 15.4208 1.07497 14.8114 1.20446 14.2294 L 2.9707 6.29205 C 3.10221 5.70105 3.49436 5.20144 4.0372 4.9333 L 11.1142 1.43752 Z" stroke-linecap="round"/>
</g>
		<g transform="matrix(24.0848 0 0 24.0848 1.3634 1.3685)" id="125495">
<g style="" vector-effect="non-scaling-stroke">
		<g transform="matrix(1 0 0 1 -3.6844 -1.5)">
<path style="stroke: rgb(255,255,255); stroke-width: 1.5; stroke-dasharray: none; stroke-linecap: round; stroke-dashoffset: 0; stroke-linejoin: round; stroke-miterlimit: 4; is-custom-font: none; font-file-url: none; fill: none; fill-rule: nonzero; opacity: 1;" transform=" translate(-8.3156, -10.5)" d="M 4 6 V 12 C 4 12 4 15 11 15 C 11.5925 15 12.1349 14.9785 12.6313 14.9392" stroke-linecap="round"/>
</g>
		<g transform="matrix(1 0 0 1 6 -3)">
<path style="stroke: rgb(255,255,255); stroke-width: 1.5; stroke-dasharray: none; stroke-linecap: round; stroke-dashoffset: 0; stroke-linejoin: round; stroke-miterlimit: 4; is-custom-font: none; font-file-url: none; fill: none; fill-rule: nonzero; opacity: 1;" transform=" translate(-18, -9)" d="M 18 6 V 12" stroke-linecap="round"/>
</g>
		<g transform="matrix(1 0 0 1 -1 -6)">
<path style="stroke: rgb(255,255,255); stroke-width: 1.5; stroke-dasharray: none; stroke-linecap: round; stroke-dashoffset: 0; stroke-linejoin: round; stroke-miterlimit: 4; is-custom-font: none; font-file-url: none; fill: none; fill-rule: nonzero; opacity: 1;" transform=" translate(-11, -6)" d="M 11 3 C 18 3 18 6 18 6 C 18 6 18 9 11 9 C 4 9 4 6 4 6 C 4 6 4 3 11 3 Z" stroke-linecap="round"/>
</g>
		<g transform="matrix(1 0 0 1 -4.5 4.5)">
<path style="stroke: rgb(255,255,255); stroke-width: 1.5; stroke-dasharray: none; stroke-linecap: round; stroke-dashoffset: 0; stroke-linejoin: round; stroke-miterlimit: 4; is-custom-font: none; font-file-url: none; fill: none; fill-rule: nonzero; opacity: 1;" transform=" translate(-7.5, -16.5)" d="M 11 21 C 4 21 4 18 4 18 V 12" stroke-linecap="round"/>
</g>
		<g transform="matrix(1 0 0 1 6.9316 4.5)">
<path style="stroke: rgb(255,255,255); stroke-width: 1.5; stroke-dasharray: none; stroke-linecap: round; stroke-dashoffset: 0; stroke-linejoin: round; stroke-miterlimit: 4; is-custom-font: none; font-file-url: none; fill: none; fill-rule: nonzero; opacity: 1;" transform=" translate(-18.9316, -16.5)" d="M 22.6664 17.6667 C 22.0476 16.097 20.6345 15 18.9901 15 C 17.2318 15 15.7377 16.2545 15.1968 18" stroke-linecap="round"/>
</g>
		<g transform="matrix(1 0 0 1 9.9976 4.5556)">
<path style="stroke: rgb(255,255,255); stroke-width: 1.5; stroke-dasharray: none; stroke-linecap: round; stroke-dashoffset: 0; stroke-linejoin: round; stroke-miterlimit: 4; is-custom-font: none; font-file-url: none; fill: none; fill-rule: nonzero; opacity: 1;" transform=" translate(-21.9976, -16.5556)" d="M 20.9951 17.6667 H 22.6664 V 17.6667 C 22.8507 17.6667 23.0001 17.5173 23.0001 17.333 V 15.4445" stroke-linecap="round"/>
</g>
		<g transform="matrix(1 0 0 1 7.0684 9.5)">
<path style="stroke: rgb(255,255,255); stroke-width: 1.5; stroke-dasharray: none; stroke-linecap: round; stroke-dashoffset: 0; stroke-linejoin: round; stroke-miterlimit: 4; is-custom-font: none; font-file-url: none; fill: none; fill-rule: nonzero; opacity: 1;" transform=" translate(-19.0684, -21.5)" d="M 15.3336 20.3333 C 15.9524 21.903 17.3655 23 19.0099 23 C 20.7682 23 22.2623 21.7455 22.8032 20" stroke-linecap="round"/>
</g>
		<g transform="matrix(1 0 0 1 4.0024 9.4444)">
<path style="stroke: rgb(255,255,255); stroke-width: 1.5; stroke-dasharray: none; stroke-linecap: round; stroke-dashoffset: 0; stroke-linejoin: round; stroke-miterlimit: 4; is-custom-font: none; font-file-url: none; fill: none; fill-rule: nonzero; opacity: 1;" transform=" translate(-16.0024, -21.4444)" d="M 17.0049 20.3333 H 15.3336 V 20.3333 C 15.1493 20.3333 14.9999 20.4827 14.9999 20.667 V 22.5555" stroke-linecap="round"/>
</g>
</g>
</g>
</g>
</g>
<g transform="matrix(1 0 0 1 497.3892 898.3458)" style="" id="187061">
		
<path xml:space="preserve" font-family="Aleo" font-size="70" font-style="normal" font-weight="bold" style="stroke: none; stroke-width: 1; stroke-dasharray: none; stroke-linecap: butt; stroke-dashoffset: 0; stroke-linejoin: miter; stroke-miterlimit: 4; is-custom-font: none; font-file-url: none; fill: rgb(82,113,255); fill-rule: nonzero; opacity: 1; white-space: pre;" d="M-239.61-4.19Q-229.18-1.88-229.18 7.08L-229.18 7.08Q-229.18 10.30-230.44 13.03L-230.44 13.03Q-231.70 15.83-234.01 17.79L-234.01 17.79Q-236.18 19.68-239.75 20.87L-239.75 20.87Q-243.11 21.99-247.59 21.99L-247.59 21.99L-272.02 21.99L-272.02 17.86Q-272.02 16.11-270.27 15.69L-270.27 15.69L-269.85 15.62Q-269.64 15.62-269.40 15.55Q-269.15 15.48-268.80 15.41L-268.80 15.41L-266.70 15.06L-266.70-21.69L-268.80-22.04Q-269.15-22.11-269.40-22.18Q-269.64-22.25-269.85-22.25L-269.85-22.25L-270.27-22.32Q-272.02-22.74-272.02-24.49L-272.02-24.49L-272.02-28.62L-249.27-28.62Q-244.23-28.62-240.80-27.71L-240.80-27.71Q-237.16-26.73-234.99-24.98L-234.99-24.98Q-232.75-23.23-231.70-20.71L-231.70-20.71Q-230.65-18.19-230.65-15.18L-230.65-15.18Q-230.65-13.29-231.14-11.75L-231.14-11.75Q-231.63-10.21-232.82-8.67L-232.82-8.67Q-233.87-7.41-235.62-6.15L-235.62-6.15Q-237.16-5.10-239.61-4.19L-239.61-4.19ZM-257.32-6.71L-249.76-6.71Q-244.93-6.71-242.48-8.46L-242.48-8.46Q-240.03-10.21-240.03-14.06L-240.03-14.06Q-240.03-17.98-242.27-19.66L-242.27-19.66Q-244.44-21.34-249.27-21.34L-249.27-21.34L-257.32-21.34L-257.32-6.71ZM-238.98 9.88Q-238.49 8.62-238.49 6.87L-238.49 6.87Q-238.49 5.40-239.05 3.93L-239.05 3.93Q-239.61 2.53-240.66 1.69L-240.66 1.69Q-241.71 0.85-243.53 0.29L-243.53 0.29Q-245.21-0.20-247.80-0.20L-247.80-0.20L-257.32-0.20L-257.32 14.64L-247.73 14.64Q-245.07 14.64-243.32 14.01L-243.32 14.01Q-241.57 13.38-240.52 12.33L-240.52 12.33Q-239.40 11.21-238.98 9.88L-238.98 9.88ZM-194.81 15.62Q-193.06 16.04-193.06 17.79L-193.06 17.79L-193.06 21.92L-201.32 21.92Q-202.65 21.92-203.28 21.57L-203.28 21.57Q-203.98 21.29-204.33 20.03L-204.33 20.03L-205.10 17.51Q-206.50 18.84-207.76 19.68L-207.76 19.68Q-208.74 20.38-210.49 21.22L-210.49 21.22Q-211.75 21.78-213.43 22.13L-213.43 22.13Q-215.18 22.48-216.93 22.48L-216.93 22.48Q-219.24 22.48-221.13 21.85L-221.13 21.85Q-223.16 21.15-224.42 20.03L-224.42 20.03Q-225.89 18.70-226.59 16.95L-226.59 16.95Q-227.36 15.06-227.36 12.75L-227.36 12.75Q-227.36 10.65-226.31 8.69L-226.31 8.69Q-225.26 6.66-222.74 5.12L-222.74 5.12Q-220.08 3.44-216.16 2.46L-216.16 2.46Q-212.03 1.41-205.87 1.41L-205.87 1.41L-205.87-0.69Q-205.87-4.19-207.41-6.08L-207.41-6.08Q-208.88-7.83-211.82-7.83L-211.82-7.83Q-214.06-7.83-215.32-7.34L-215.32-7.34Q-216.93-6.71-217.77-6.22L-217.77-6.22L-219.66-5.17Q-220.43-4.68-221.55-4.68L-221.55-4.68Q-222.46-4.68-223.09-5.10L-223.09-5.10Q-223.51-5.38-224.07-6.22L-224.07-6.22L-225.68-8.95Q-219.38-14.69-210.77-14.69L-210.77-14.69Q-207.62-14.69-205.10-13.64L-205.10-13.64Q-202.65-12.59-200.97-10.77L-200.97-10.77Q-199.08-8.60-198.31-6.36L-198.31-6.36Q-197.47-3.84-197.47-0.76L-197.47-0.76L-197.47 15.13L-195.58 15.48L-194.81 15.62ZM-205.87 6.66Q-209.79 6.66-212.17 7.15L-212.17 7.15Q-214.76 7.71-216.30 8.41L-216.30 8.41Q-217.84 9.11-218.47 10.09L-218.47 10.09Q-219.10 11.00-219.10 12.26L-219.10 12.26Q-219.10 14.64-217.77 15.55L-217.77 15.55Q-216.37 16.53-214.27 16.53L-214.27 16.53Q-212.94 16.53-211.82 16.32L-211.82 16.32Q-210.63 16.11-209.65 15.55L-209.65 15.55Q-208.39 14.85-207.76 14.36L-207.76 14.36Q-206.78 13.59-205.87 12.68L-205.87 12.68L-205.87 6.66ZM-160.51 16.60Q-162.19 18.49-163.59 19.47L-163.59 19.47Q-164.99 20.38-167.09 21.29L-167.09 21.29Q-168.63 21.85-170.80 22.20L-170.80 22.20Q-172.48 22.48-174.65 22.48L-174.65 22.48Q-178.08 22.48-180.88 21.29L-180.88 21.29Q-183.82 20.03-185.99 17.65L-185.99 17.65Q-188.30 15.13-189.49 11.84L-189.49 11.84Q-190.75 8.34-190.75 3.93L-190.75 3.93Q-190.75-0.06-189.63-3.35L-189.63-3.35Q-188.44-6.71-186.27-9.23L-186.27-9.23Q-184.10-11.68-180.81-13.08L-180.81-13.08Q-177.45-14.48-173.32-14.48L-173.32-14.48Q-168.84-14.48-161.98-11.89L-161.98-11.89L-162.05-0.83L-166.04-0.83Q-167.30-0.83-167.65-2.16L-167.65-2.16L-168.21-7.20Q-170.80-7.90-172.83-7.90L-172.83-7.90Q-175.14-7.90-176.82-7.06L-176.82-7.06Q-178.57-6.22-179.62-4.75L-179.62-4.75Q-180.88-3.00-181.37-0.97L-181.37-0.97Q-181.93 1.41-181.93 3.93L-181.93 3.93Q-181.93 6.80-181.30 9.04L-181.30 9.04Q-180.67 11.35-179.55 12.82L-179.55 12.82Q-178.36 14.29-176.75 15.13L-176.75 15.13Q-175 15.90-173.04 15.90L-173.04 15.90Q-170.87 15.90-169.68 15.41L-169.68 15.41Q-168.14 14.78-167.51 14.29L-167.51 14.29Q-167.16 14.01-166.78 13.76Q-166.39 13.52-165.97 13.17L-165.97 13.17Q-165.41 12.68-164.57 12.68L-164.57 12.68Q-163.45 12.68-162.96 13.45L-162.96 13.45L-160.51 16.60ZM-120.26 15.69Q-118.51 16.11-118.51 17.86L-118.51 17.86L-118.51 21.99L-127.68 21.99Q-128.59 21.99-129.43 21.64L-129.43 21.64Q-130.13 21.36-130.69 20.45L-130.69 20.45L-139.79 6.80Q-140.28 5.96-140.84 5.75L-140.84 5.75Q-141.33 5.54-142.45 5.54L-142.45 5.54L-144.41 5.54L-144.41 15.06L-142.31 15.41L-141.26 15.62L-140.84 15.69Q-139.09 16.11-139.09 17.86L-139.09 17.86L-139.09 21.99L-158.34 21.99L-158.34 17.86Q-158.34 16.11-156.59 15.69L-156.59 15.69L-156.17 15.62Q-155.96 15.62-155.72 15.55Q-155.47 15.48-155.12 15.41L-155.12 15.41L-153.02 15.06L-153.02-23.09L-155.12-23.44Q-155.47-23.51-155.72-23.58Q-155.96-23.65-156.17-23.65L-156.17-23.65L-156.59-23.72Q-158.34-24.14-158.34-25.89L-158.34-25.89L-158.34-30.02L-144.41-30.02L-144.41-0.27L-142.80-0.27Q-141.89-0.27-141.40-0.48L-141.40-0.48Q-140.98-0.62-140.35-1.39L-140.35-1.39L-135.38-7.48L-136.01-7.62Q-137.76-8.04-137.76-9.79L-137.76-9.79L-137.76-13.92L-129.15-13.92L-129.15-13.85Q-128.87-13.92-128.45-13.92L-128.45-13.92L-120.75-13.92L-120.75-9.79Q-120.75-8.04-122.50-7.62L-122.50-7.62L-123.06-7.55L-124.46-7.34L-126.35-7.06L-131.67-0.62L-132.93 0.78Q-133.63 1.48-134.26 1.83L-134.26 1.83Q-133.42 2.46-133 3.02L-133 3.02Q-132.79 3.30-132.51 3.65Q-132.23 4.00-131.88 4.56L-131.88 4.56L-124.67 15.06Q-123.13 15.34-122.43 15.41L-122.43 15.41Q-120.89 15.55-120.96 15.55L-120.96 15.55L-120.26 15.69ZM-76.23 15.69Q-74.48 16.11-74.48 17.86L-74.48 17.86L-74.48 21.99L-85.05 21.99Q-86.66 21.99-87.22 20.38L-87.22 20.38L-87.85 17.51Q-89.04 18.70-90.16 19.61L-90.16 19.61Q-91.21 20.45-92.68 21.15L-92.68 21.15Q-94.08 21.78-95.62 22.20L-95.62 22.20Q-97.37 22.55-98.91 22.55L-98.91 22.55Q-101.78 22.55-104.16 21.57L-104.16 21.57Q-106.19 20.73-107.94 18.70L-107.94 18.70Q-109.34 17.09-110.25 14.43L-110.25 14.43Q-111.02 11.77-111.02 8.90L-111.02 8.90L-111.02-6.99L-114.59-7.62Q-116.34-8.04-116.34-9.79L-116.34-9.79L-116.34-13.92L-102.41-13.92L-102.41 8.90Q-102.41 12.12-100.87 14.01L-100.87 14.01Q-99.40 15.76-96.32 15.76L-96.32 15.76Q-94.22 15.76-92.12 14.78L-92.12 14.78Q-90.23 13.87-88.41 12.05L-88.41 12.05L-88.41-6.99Q-90.37-7.34-91.00-7.45Q-91.63-7.55-91.91-7.62L-91.91-7.62Q-93.66-8.04-93.66-9.79L-93.66-9.79L-93.66-13.92L-79.73-13.92L-79.73 15.06L-76.23 15.69ZM-34.86-4.05Q-33.88-0.48-33.88 3.72L-33.88 3.72Q-33.88 7.50-35 11.21L-35 11.21Q-35.98 14.57-38.08 17.16L-38.08 17.16Q-39.97 19.54-42.91 21.08L-42.91 21.08Q-45.64 22.48-49.35 22.48L-49.35 22.48Q-52.43 22.48-54.46 21.57L-54.46 21.57Q-56.77 20.52-58.31 18.98L-58.31 18.98L-58.31 26.75Q-57.61 26.89-57.09 26.99Q-56.56 27.10-56.21 27.17L-56.21 27.17Q-55.09 27.31-55.16 27.31L-55.16 27.31L-54.74 27.38Q-52.99 27.80-52.99 29.62L-52.99 29.62L-52.99 33.68L-72.24 33.68L-72.24 29.62Q-72.24 27.80-70.49 27.38L-70.49 27.38L-70.07 27.31L-69.02 27.17L-66.92 26.75L-66.92-6.99L-69.02-7.34Q-69.37-7.41-69.62-7.48Q-69.86-7.55-70.07-7.55L-70.07-7.55L-70.49-7.62Q-72.24-8.04-72.24-9.79L-72.24-9.79L-72.24-13.92L-61.67-13.92Q-60.83-13.92-60.20-13.50L-60.20-13.50Q-59.64-13.15-59.43-12.31L-59.43-12.31L-58.73-9.02Q-56.63-11.40-53.76-13.01L-53.76-13.01Q-50.96-14.55-47.18-14.55L-47.18-14.55Q-44.10-14.55-41.79-13.36L-41.79-13.36Q-39.34-12.10-37.59-9.79L-37.59-9.79Q-35.84-7.55-34.86-4.05L-34.86-4.05ZM-43.40 9.18Q-42.84 7.15-42.84 3.79L-42.84 3.79Q-42.84 0.43-43.33-1.60L-43.33-1.60Q-43.82-3.70-44.80-5.10L-44.80-5.10Q-45.78-6.50-47.11-7.13L-47.11-7.13Q-48.44-7.76-50.12-7.76L-50.12-7.76Q-52.92-7.76-54.74-6.64L-54.74-6.64Q-56.70-5.45-58.31-3.42L-58.31-3.42L-58.31 12.68Q-56.91 14.43-55.09 15.20L-55.09 15.20Q-53.48 15.90-51.38 15.90L-51.38 15.90Q-49.28 15.90-47.81 15.20L-47.81 15.20Q-46.41 14.57-45.15 12.96L-45.15 12.96Q-43.96 11.35-43.40 9.18L-43.40 9.18ZM35.70-3.35Q35.70 4.14 32.45 10.02Q29.19 15.90 23.34 19.22Q17.50 22.55 10.08 22.55L10.08 22.55Q2.66 22.55-3.19 19.26Q-9.03 15.97-12.32 10.09Q-15.61 4.21-15.61-3.35L-15.61-3.35Q-15.61-10.91-12.32-16.79Q-9.03-22.67-3.19-25.93Q2.66-29.18 10.08-29.18L10.08-29.18Q17.57-29.18 23.41-25.82Q29.26-22.46 32.48-16.58Q35.70-10.70 35.70-3.35L35.70-3.35ZM26.04-3.35Q26.04-11.40 21.88-16.27Q17.71-21.13 10.08-21.13L10.08-21.13Q2.31-21.13-1.86-16.23Q-6.02-11.33-6.02-3.35L-6.02-3.35Q-6.02 4.77-1.82 9.63Q2.38 14.50 10.08 14.50L10.08 14.50Q17.78 14.50 21.91 9.60Q26.04 4.70 26.04-3.35L26.04-3.35ZM75.04-4.05Q76.02-0.48 76.02 3.72L76.02 3.72Q76.02 7.50 74.90 11.21L74.90 11.21Q73.92 14.57 71.82 17.16L71.82 17.16Q69.93 19.54 66.99 21.08L66.99 21.08Q64.26 22.48 60.55 22.48L60.55 22.48Q57.47 22.48 55.44 21.57L55.44 21.57Q53.13 20.52 51.59 18.98L51.59 18.98L51.59 26.75Q52.29 26.89 52.81 26.99Q53.34 27.10 53.69 27.17L53.69 27.17Q54.81 27.31 54.74 27.31L54.74 27.31L55.16 27.38Q56.91 27.80 56.91 29.62L56.91 29.62L56.91 33.68L37.66 33.68L37.66 29.62Q37.66 27.80 39.41 27.38L39.41 27.38L39.83 27.31L40.88 27.17L42.98 26.75L42.98-6.99L40.88-7.34Q40.53-7.41 40.28-7.48Q40.04-7.55 39.83-7.55L39.83-7.55L39.41-7.62Q37.66-8.04 37.66-9.79L37.66-9.79L37.66-13.92L48.23-13.92Q49.07-13.92 49.70-13.50L49.70-13.50Q50.26-13.15 50.47-12.31L50.47-12.31L51.17-9.02Q53.27-11.40 56.14-13.01L56.14-13.01Q58.94-14.55 62.72-14.55L62.72-14.55Q65.80-14.55 68.11-13.36L68.11-13.36Q70.56-12.10 72.31-9.79L72.31-9.79Q74.06-7.55 75.04-4.05L75.04-4.05ZM66.50 9.18Q67.06 7.15 67.06 3.79L67.06 3.79Q67.06 0.43 66.57-1.60L66.57-1.60Q66.08-3.70 65.10-5.10L65.10-5.10Q64.12-6.50 62.79-7.13L62.79-7.13Q61.46-7.76 59.78-7.76L59.78-7.76Q56.98-7.76 55.16-6.64L55.16-6.64Q53.20-5.45 51.59-3.42L51.59-3.42L51.59 12.68Q52.99 14.43 54.81 15.20L54.81 15.20Q56.42 15.90 58.52 15.90L58.52 15.90Q60.62 15.90 62.09 15.20L62.09 15.20Q63.49 14.57 64.75 12.96L64.75 12.96Q65.94 11.35 66.50 9.18L66.50 9.18ZM95.48-14.48Q98.91-14.48 101.71-13.43L101.71-13.43Q104.37-12.45 106.61-10.21L106.61-10.21Q108.64-8.18 109.83-5.10L109.83-5.10Q111.02-1.95 111.02 1.76L111.02 1.76Q111.02 2.60 110.88 3.44L110.88 3.44Q110.74 4.21 110.60 4.42L110.60 4.42Q110.46 4.77 109.97 4.98L109.97 4.98Q109.69 5.12 108.99 5.12L108.99 5.12L86.80 5.12Q87.22 10.65 89.81 13.24L89.81 13.24Q92.40 15.83 96.67 15.83L96.67 15.83Q98.84 15.83 100.24 15.34L100.24 15.34Q101.78 14.85 102.90 14.22L102.90 14.22Q103.39 13.94 103.92 13.69Q104.44 13.45 104.93 13.17L104.93 13.17Q105.70 12.68 106.54 12.68L106.54 12.68Q107.10 12.68 107.52 12.89L107.52 12.89Q107.87 13.03 108.15 13.45L108.15 13.45L110.67 16.60Q109.06 18.42 107.45 19.47L107.45 19.47Q105.56 20.66 103.74 21.29L103.74 21.29Q101.99 21.85 99.75 22.20L99.75 22.20Q98 22.48 95.83 22.48L95.83 22.48Q91.98 22.48 88.90 21.29L88.90 21.29Q85.82 20.10 83.30 17.58L83.30 17.58Q80.92 15.20 79.52 11.56L79.52 11.56Q78.19 8.06 78.19 3.23L78.19 3.23Q78.19-0.27 79.38-3.63L79.38-3.63Q80.50-6.78 82.81-9.30L82.81-9.30Q84.98-11.68 88.20-13.08L88.20-13.08Q91.42-14.48 95.48-14.48L95.48-14.48ZM95.62-8.32Q91.91-8.32 89.74-6.15L89.74-6.15Q87.64-4.05 87.01-0.13L87.01-0.13L103.25-0.13Q103.25-1.60 102.76-3.28L102.76-3.28Q102.34-4.61 101.36-5.87L101.36-5.87Q100.45-6.99 98.98-7.62L98.98-7.62Q97.37-8.32 95.62-8.32L95.62-8.32ZM137.20-14.55Q139.93-14.55 141.61-13.36L141.61-13.36L140.49-6.85Q140.42-6.22 140.07-6.01L140.07-6.01Q139.65-5.73 139.09-5.73L139.09-5.73Q138.60-5.73 137.69-5.94L137.69-5.94Q136.43-6.22 135.24-6.22L135.24-6.22Q132.51-6.22 130.62-4.75L130.62-4.75Q128.87-3.42 127.40-0.34L127.40-0.34L127.40 15.06L130.90 15.69Q132.65 16.11 132.65 17.86L132.65 17.86L132.65 21.99L113.47 21.99L113.47 17.86Q113.47 16.11 115.22 15.69L115.22 15.69L118.72 15.06L118.72-6.99L115.22-7.62Q113.47-8.04 113.47-9.79L113.47-9.79L113.47-13.92L123.83-13.92Q125.16-13.92 125.65-13.43L125.65-13.43Q126.14-12.94 126.35-11.75L126.35-11.75L126.91-7.41Q128.80-10.84 131.39-12.66L131.39-12.66Q134.05-14.55 137.20-14.55L137.20-14.55ZM176.05 15.62Q177.80 16.04 177.80 17.79L177.80 17.79L177.80 21.92L169.54 21.92Q168.21 21.92 167.58 21.57L167.58 21.57Q166.88 21.29 166.53 20.03L166.53 20.03L165.76 17.51Q164.36 18.84 163.10 19.68L163.10 19.68Q162.12 20.38 160.37 21.22L160.37 21.22Q159.11 21.78 157.43 22.13L157.43 22.13Q155.68 22.48 153.93 22.48L153.93 22.48Q151.62 22.48 149.73 21.85L149.73 21.85Q147.70 21.15 146.44 20.03L146.44 20.03Q144.97 18.70 144.27 16.95L144.27 16.95Q143.50 15.06 143.50 12.75L143.50 12.75Q143.50 10.65 144.55 8.69L144.55 8.69Q145.60 6.66 148.12 5.12L148.12 5.12Q150.78 3.44 154.70 2.46L154.70 2.46Q158.83 1.41 164.99 1.41L164.99 1.41L164.99-0.69Q164.99-4.19 163.45-6.08L163.45-6.08Q161.98-7.83 159.04-7.83L159.04-7.83Q156.80-7.83 155.54-7.34L155.54-7.34Q153.93-6.71 153.09-6.22L153.09-6.22L151.20-5.17Q150.43-4.68 149.31-4.68L149.31-4.68Q148.40-4.68 147.77-5.10L147.77-5.10Q147.35-5.38 146.79-6.22L146.79-6.22L145.18-8.95Q151.48-14.69 160.09-14.69L160.09-14.69Q163.24-14.69 165.76-13.64L165.76-13.64Q168.21-12.59 169.89-10.77L169.89-10.77Q171.78-8.60 172.55-6.36L172.55-6.36Q173.39-3.84 173.39-0.76L173.39-0.76L173.39 15.13L175.28 15.48L176.05 15.62ZM164.99 6.66Q161.07 6.66 158.69 7.15L158.69 7.15Q156.10 7.71 154.56 8.41L154.56 8.41Q153.02 9.11 152.39 10.09L152.39 10.09Q151.76 11.00 151.76 12.26L151.76 12.26Q151.76 14.64 153.09 15.55L153.09 15.55Q154.49 16.53 156.59 16.53L156.59 16.53Q157.92 16.53 159.04 16.32L159.04 16.32Q160.23 16.11 161.21 15.55L161.21 15.55Q162.47 14.85 163.10 14.36L163.10 14.36Q164.08 13.59 164.99 12.68L164.99 12.68L164.99 6.66ZM195.02 22.55Q190.33 22.55 187.81 19.89L187.81 19.89Q185.29 17.23 185.29 12.61L185.29 12.61L185.29-7.41L181.65-7.41Q181.09-7.41 180.46-7.90L180.46-7.90Q179.90-8.32 179.90-9.23L179.90-9.23L179.90-12.73L185.71-13.64L187.53-23.44Q187.60-24.07 188.16-24.49L188.16-24.49Q188.72-24.91 189.49-24.91L189.49-24.91L193.97-24.91L193.97-13.57L203.42-13.57L203.42-7.41L193.97-7.41L193.97 12.05Q193.97 13.66 194.81 14.64L194.81 14.64Q195.65 15.55 197.05 15.55L197.05 15.55Q198.03 15.55 198.38 15.41L198.38 15.41L199.29 14.99L200.06 14.57Q200.27 14.43 200.62 14.43L200.62 14.43Q201.18 14.43 201.32 14.57L201.32 14.57L201.81 15.13L204.40 19.33Q202.58 20.80 200.06 21.71L200.06 21.71Q197.68 22.55 195.02 22.55L195.02 22.55ZM224.14-14.48Q227.99-14.48 231.42-13.15L231.42-13.15Q234.78-11.82 237.02-9.51L237.02-9.51Q239.26-7.20 240.52-3.70L240.52-3.70Q241.78-0.27 241.78 3.93L241.78 3.93Q241.78 8.13 240.52 11.63L240.52 11.63Q239.19 15.20 237.02 17.51L237.02 17.51Q234.71 19.96 231.42 21.22L231.42 21.22Q228.20 22.48 224.14 22.48L224.14 22.48Q220.08 22.48 216.79 21.22L216.79 21.22Q213.50 19.96 211.19 17.51L211.19 17.51Q208.74 14.99 207.55 11.63L207.55 11.63Q206.29 8.13 206.29 3.93L206.29 3.93Q206.29-0.27 207.55-3.70L207.55-3.70Q208.74-6.92 211.19-9.51L211.19-9.51Q213.43-11.82 216.79-13.15L216.79-13.15Q220.22-14.48 224.14-14.48L224.14-14.48ZM224.14 15.83Q228.62 15.83 230.72 12.82L230.72 12.82Q232.89 9.67 232.89 4.00L232.89 4.00Q232.89-1.67 230.72-4.82L230.72-4.82Q228.62-7.90 224.14-7.90L224.14-7.90Q219.66-7.90 217.42-4.82L217.42-4.82Q215.18-1.74 215.18 4.07L215.18 4.07Q215.18 9.74 217.42 12.82L217.42 12.82Q219.59 15.83 224.14 15.83L224.14 15.83ZM268.03-14.55Q270.76-14.55 272.44-13.36L272.44-13.36L271.32-6.85Q271.25-6.22 270.90-6.01L270.90-6.01Q270.48-5.73 269.92-5.73L269.92-5.73Q269.43-5.73 268.52-5.94L268.52-5.94Q267.26-6.22 266.07-6.22L266.07-6.22Q263.34-6.22 261.45-4.75L261.45-4.75Q259.70-3.42 258.23-0.34L258.23-0.34L258.23 15.06L261.73 15.69Q263.48 16.11 263.48 17.86L263.48 17.86L263.48 21.99L244.30 21.99L244.30 17.86Q244.30 16.11 246.05 15.69L246.05 15.69L249.55 15.06L249.55-6.99L246.05-7.62Q244.30-8.04 244.30-9.79L244.30-9.79L244.30-13.92L254.66-13.92Q255.99-13.92 256.48-13.43L256.48-13.43Q256.97-12.94 257.18-11.75L257.18-11.75L257.74-7.41Q259.63-10.84 262.22-12.66L262.22-12.66Q264.88-14.55 268.03-14.55L268.03-14.55Z"/></g>
<g transform="matrix(1 0 0 1 562.5627 964.1262)" style="" id="865372">
		
<path xml:space="preserve" font-family="Aleo" font-size="41" font-style="normal" font-weight="bold" style="stroke: none; stroke-width: 1; stroke-dasharray: none; stroke-linecap: butt; stroke-dashoffset: 0; stroke-linejoin: miter; stroke-miterlimit: 4; is-custom-font: none; font-file-url: none; fill: rgb(112,132,219); fill-rule: nonzero; opacity: 1; white-space: pre;" d="M-175.17-2.45Q-169.06-1.10-169.06 4.15L-169.06 4.15Q-169.06 6.03-169.80 7.63L-169.80 7.63Q-170.54 9.27-171.89 10.42L-171.89 10.42Q-173.16 11.53-175.25 12.22L-175.25 12.22Q-177.22 12.88-179.85 12.88L-179.85 12.88L-194.16 12.88L-194.16 10.46Q-194.16 9.44-193.13 9.19L-193.13 9.19L-192.88 9.15Q-192.76 9.15-192.62 9.11Q-192.47 9.07-192.27 9.03L-192.27 9.03L-191.04 8.82L-191.04-12.70L-192.27-12.91Q-192.47-12.95-192.62-12.99Q-192.76-13.03-192.88-13.03L-192.88-13.03L-193.13-13.07Q-194.16-13.32-194.16-14.34L-194.16-14.34L-194.16-16.76L-180.83-16.76Q-177.88-16.76-175.87-16.23L-175.87-16.23Q-173.74-15.66-172.47-14.63L-172.47-14.63Q-171.15-13.61-170.54-12.13L-170.54-12.13Q-169.92-10.65-169.92-8.89L-169.92-8.89Q-169.92-7.78-170.21-6.88L-170.21-6.88Q-170.50-5.98-171.20-5.08L-171.20-5.08Q-171.81-4.34-172.84-3.60L-172.84-3.60Q-173.74-2.99-175.17-2.45L-175.17-2.45ZM-185.55-3.93L-181.12-3.93Q-178.29-3.93-176.85-4.96L-176.85-4.96Q-175.42-5.98-175.42-8.24L-175.42-8.24Q-175.42-10.53-176.73-11.52L-176.73-11.52Q-178.00-12.50-180.83-12.50L-180.83-12.50L-185.55-12.50L-185.55-3.93ZM-174.80 5.79Q-174.52 5.05-174.52 4.02L-174.52 4.02Q-174.52 3.16-174.84 2.30L-174.84 2.30Q-175.17 1.48-175.79 0.99L-175.79 0.99Q-176.40 0.50-177.47 0.17L-177.47 0.17Q-178.45-0.12-179.97-0.12L-179.97-0.12L-185.55-0.12L-185.55 8.57L-179.93 8.57Q-178.37 8.57-177.35 8.21L-177.35 8.21Q-176.32 7.84-175.71 7.22L-175.71 7.22Q-175.05 6.57-174.80 5.79L-174.80 5.79ZM-144.09-8.15L-144.09-5.73Q-144.09-4.71-145.12-4.46L-145.12-4.46Q-145.28-4.46-145.61-4.38Q-145.94-4.30-147.05-4.09L-147.05-4.09L-156.76 18.66Q-157.01 19.23-157.38 19.48L-157.38 19.48Q-157.67 19.73-158.44 19.73L-158.44 19.73L-162.22 19.73L-158.28 11.32L-165.05-4.09Q-166.15-4.30-166.48-4.38Q-166.81-4.46-166.97-4.46L-166.97-4.46Q-168.00-4.71-168.00-5.73L-168.00-5.73L-168.00-8.15L-157.75-8.15L-157.75-5.73Q-157.75-4.71-158.77-4.46L-158.77-4.46L-159.76-4.30L-156.44 3.70Q-156.27 4.06-156.19 4.35Q-156.11 4.64-156.07 4.80L-156.07 4.80Q-155.98 5.09-155.78 5.95L-155.78 5.95L-155.41 4.80Q-155.16 4.06-155.00 3.70L-155.00 3.70L-151.93-4.22L-153.32-4.46Q-154.34-4.71-154.34-5.73L-154.34-5.73L-154.34-8.15L-144.09-8.15ZM-103.38-1.96Q-103.38 2.42-105.29 5.87Q-107.19 9.31-110.62 11.26Q-114.04 13.21-118.39 13.21L-118.39 13.21Q-122.73 13.21-126.16 11.28Q-129.58 9.35-131.51 5.91Q-133.43 2.47-133.43-1.96L-133.43-1.96Q-133.43-6.39-131.51-9.83Q-129.58-13.28-126.16-15.18Q-122.73-17.09-118.39-17.09L-118.39-17.09Q-114.00-17.09-110.58-15.12Q-107.15-13.16-105.27-9.71Q-103.38-6.27-103.38-1.96L-103.38-1.96ZM-109.04-1.96Q-109.04-6.68-111.48-9.53Q-113.92-12.38-118.39-12.38L-118.39-12.38Q-122.94-12.38-125.38-9.51Q-127.82-6.64-127.82-1.96L-127.82-1.96Q-127.82 2.79-125.36 5.64Q-122.90 8.49-118.39 8.49L-118.39 8.49Q-113.88 8.49-111.46 5.62Q-109.04 2.75-109.04-1.96L-109.04-1.96ZM-80.34-2.37Q-79.77-0.28-79.77 2.18L-79.77 2.18Q-79.77 4.39-80.42 6.57L-80.42 6.57Q-81.00 8.53-82.23 10.05L-82.23 10.05Q-83.33 11.44-85.05 12.35L-85.05 12.35Q-86.65 13.17-88.83 13.17L-88.83 13.17Q-90.63 13.17-91.82 12.63L-91.82 12.63Q-93.17 12.02-94.07 11.12L-94.07 11.12L-94.07 15.67Q-93.66 15.75-93.36 15.81Q-93.05 15.87-92.84 15.91L-92.84 15.91Q-92.19 16.00-92.23 16.00L-92.23 16.00L-91.98 16.04Q-90.96 16.28-90.96 17.35L-90.96 17.35L-90.96 19.73L-102.23 19.73L-102.23 17.35Q-102.23 16.28-101.21 16.04L-101.21 16.04L-100.96 16.00L-100.35 15.91L-99.12 15.67L-99.12-4.09L-100.35-4.30Q-100.55-4.34-100.70-4.38Q-100.84-4.42-100.96-4.42L-100.96-4.42L-101.21-4.46Q-102.23-4.71-102.23-5.73L-102.23-5.73L-102.23-8.15L-96.04-8.15Q-95.55-8.15-95.18-7.91L-95.18-7.91Q-94.85-7.70-94.73-7.21L-94.73-7.21L-94.32-5.28Q-93.09-6.68-91.41-7.62L-91.41-7.62Q-89.77-8.52-87.56-8.52L-87.56-8.52Q-85.75-8.52-84.40-7.83L-84.40-7.83Q-82.96-7.09-81.94-5.73L-81.94-5.73Q-80.91-4.42-80.34-2.37L-80.34-2.37ZM-85.34 5.38Q-85.01 4.19-85.01 2.22L-85.01 2.22Q-85.01 0.25-85.30-0.94L-85.30-0.94Q-85.59-2.17-86.16-2.99L-86.16-2.99Q-86.74-3.81-87.51-4.18L-87.51-4.18Q-88.29-4.55-89.28-4.55L-89.28-4.55Q-90.92-4.55-91.98-3.89L-91.98-3.89Q-93.13-3.19-94.07-2.00L-94.07-2.00L-94.07 7.43Q-93.25 8.45-92.19 8.90L-92.19 8.90Q-91.25 9.31-90.02 9.31L-90.02 9.31Q-88.79 9.31-87.92 8.90L-87.92 8.90Q-87.10 8.53-86.37 7.59L-86.37 7.59Q-85.67 6.65-85.34 5.38L-85.34 5.38ZM-63.61 4.02Q-63.16 5.01-63.16 6.20L-63.16 6.20Q-63.16 7.67-63.73 9.03L-63.73 9.03Q-64.31 10.30-65.33 11.24L-65.33 11.24Q-66.44 12.22-67.96 12.67L-67.96 12.67Q-69.43 13.21-71.57 13.21L-71.57 13.21Q-73.41 13.21-75.19 12.88Q-76.98 12.55-78.25 12.06L-78.25 12.06L-78.25 6.11L-75.87 6.11Q-75.13 6.11-74.93 6.89L-74.93 6.89Q-74.85 7.34-74.64 9.31L-74.64 9.31Q-73.53 9.64-71.32 9.64L-71.32 9.64Q-70.46 9.64-69.76 9.44L-69.76 9.44Q-69.06 9.19-68.70 8.86L-68.70 8.86Q-68.20 8.45-68.08 8.08L-68.08 8.08Q-67.92 7.63-67.92 7.10L-67.92 7.10Q-67.92 6.36-68.33 5.91L-68.33 5.91Q-68.70 5.50-69.52 5.09L-69.52 5.09Q-70.29 4.72-71.16 4.47L-71.16 4.47L-73.08 3.86Q-73.74 3.65-74.97 3.08L-74.97 3.08Q-75.95 2.63-76.65 1.97L-76.65 1.97Q-77.39 1.32-77.80 0.33L-77.80 0.33Q-78.25-0.69-78.25-2.04L-78.25-2.04Q-78.25-3.36-77.76-4.50L-77.76-4.50Q-77.26-5.65-76.24-6.55L-76.24-6.55Q-75.21-7.46-73.74-7.95L-73.74-7.95Q-72.14-8.48-70.34-8.48L-70.34-8.48Q-68.78-8.48-67.59-8.26Q-66.40-8.03-64.19-7.37L-64.19-7.37L-64.23-7.37L-64.23-1.43L-66.56-1.43Q-67.30-1.43-67.51-2.21L-67.51-2.21Q-67.63-2.74-67.79-4.50L-67.79-4.50Q-68.74-4.79-70.25-4.79L-70.25-4.79Q-71.73-4.79-72.59-4.18L-72.59-4.18Q-73.45-3.56-73.45-2.50L-73.45-2.50Q-73.45-1.88-73.00-1.35L-73.00-1.35Q-72.67-0.98-71.85-0.57L-71.85-0.57Q-70.91-0.12-70.21 0.09L-70.21 0.09Q-69.88 0.17-68.33 0.66L-68.33 0.66Q-67.55 0.91-66.40 1.44L-66.40 1.44Q-65.42 1.89-64.76 2.51L-64.76 2.51Q-64.02 3.12-63.61 4.02L-63.61 4.02ZM-53.28 13.21Q-56.03 13.21-57.50 11.65L-57.50 11.65Q-58.98 10.09-58.98 7.39L-58.98 7.39L-58.98-4.34L-61.11-4.34Q-61.44-4.34-61.81-4.63L-61.81-4.63Q-62.14-4.87-62.14-5.41L-62.14-5.41L-62.14-7.46L-58.73-7.99L-57.67-13.73Q-57.63-14.10-57.30-14.34L-57.30-14.34Q-56.97-14.59-56.52-14.59L-56.52-14.59L-53.89-14.59L-53.89-7.95L-48.36-7.95L-48.36-4.34L-53.89-4.34L-53.89 7.06Q-53.89 8.00-53.40 8.57L-53.40 8.57Q-52.91 9.11-52.09 9.11L-52.09 9.11Q-51.52 9.11-51.31 9.03L-51.31 9.03L-50.78 8.78L-50.33 8.53Q-50.20 8.45-50.00 8.45L-50.00 8.45Q-49.67 8.45-49.59 8.53L-49.59 8.53L-49.30 8.86L-47.79 11.32Q-48.85 12.18-50.33 12.72L-50.33 12.72Q-51.72 13.21-53.28 13.21L-53.28 13.21ZM-32.57-8.52Q-30.98-8.52-29.99-7.83L-29.99-7.83L-30.65-4.01Q-30.69-3.64-30.89-3.52L-30.89-3.52Q-31.14-3.36-31.47-3.36L-31.47-3.36Q-31.75-3.36-32.29-3.48L-32.29-3.48Q-33.03-3.64-33.72-3.64L-33.72-3.64Q-35.32-3.64-36.43-2.78L-36.43-2.78Q-37.45-2.00-38.31-0.20L-38.31-0.20L-38.31 8.82L-36.26 9.19Q-35.24 9.44-35.24 10.46L-35.24 10.46L-35.24 12.88L-46.47 12.88L-46.47 10.46Q-46.47 9.44-45.45 9.19L-45.45 9.19L-43.40 8.82L-43.40-4.09L-45.45-4.46Q-46.47-4.71-46.47-5.73L-46.47-5.73L-46.47-8.15L-40.41-8.15Q-39.63-8.15-39.34-7.87L-39.34-7.87Q-39.05-7.58-38.93-6.88L-38.93-6.88L-38.60-4.34Q-37.49-6.35-35.98-7.42L-35.98-7.42Q-34.42-8.52-32.57-8.52L-32.57-8.52ZM-18.68-8.48Q-16.67-8.48-15.03-7.87L-15.03-7.87Q-13.47-7.29-12.16-5.98L-12.16-5.98Q-10.97-4.79-10.27-2.99L-10.27-2.99Q-9.57-1.14-9.57 1.03L-9.57 1.03Q-9.57 1.52-9.66 2.01L-9.66 2.01Q-9.74 2.47-9.82 2.59L-9.82 2.59Q-9.90 2.79-10.19 2.92L-10.19 2.92Q-10.35 3.00-10.76 3.00L-10.76 3.00L-23.76 3.00Q-23.51 6.24-22.00 7.75L-22.00 7.75Q-20.48 9.27-17.98 9.27L-17.98 9.27Q-16.71 9.27-15.89 8.98L-15.89 8.98Q-14.99 8.70-14.33 8.33L-14.33 8.33Q-14.04 8.16-13.74 8.02Q-13.43 7.88-13.14 7.71L-13.14 7.71Q-12.69 7.43-12.20 7.43L-12.20 7.43Q-11.87 7.43-11.62 7.55L-11.62 7.55Q-11.42 7.63-11.25 7.88L-11.25 7.88L-9.78 9.72Q-10.72 10.79-11.66 11.40L-11.66 11.40Q-12.77 12.10-13.84 12.47L-13.84 12.47Q-14.86 12.80-16.17 13.00L-16.17 13.00Q-17.20 13.17-18.47 13.17L-18.47 13.17Q-20.73 13.17-22.53 12.47L-22.53 12.47Q-24.33 11.77-25.81 10.30L-25.81 10.30Q-27.20 8.90-28.02 6.77L-28.02 6.77Q-28.80 4.72-28.80 1.89L-28.80 1.89Q-28.80-0.16-28.11-2.13L-28.11-2.13Q-27.45-3.97-26.10-5.45L-26.10-5.45Q-24.83-6.84-22.94-7.66L-22.94-7.66Q-21.05-8.48-18.68-8.48L-18.68-8.48ZM-18.59-4.87Q-20.77-4.87-22.04-3.60L-22.04-3.60Q-23.27-2.37-23.64-0.08L-23.64-0.08L-14.12-0.08Q-14.12-0.94-14.41-1.92L-14.41-1.92Q-14.66-2.70-15.23-3.44L-15.23-3.44Q-15.76-4.09-16.63-4.46L-16.63-4.46Q-17.57-4.87-18.59-4.87L-18.59-4.87ZM1.78-8.48Q3.79-8.48 5.43-7.87L5.43-7.87Q6.99-7.29 8.30-5.98L8.30-5.98Q9.49-4.79 10.19-2.99L10.19-2.99Q10.89-1.14 10.89 1.03L10.89 1.03Q10.89 1.52 10.80 2.01L10.80 2.01Q10.72 2.47 10.64 2.59L10.64 2.59Q10.56 2.79 10.27 2.92L10.27 2.92Q10.11 3.00 9.70 3.00L9.70 3.00L-3.30 3.00Q-3.05 6.24-1.54 7.75L-1.54 7.75Q-0.02 9.27 2.48 9.27L2.48 9.27Q3.75 9.27 4.57 8.98L4.57 8.98Q5.47 8.70 6.13 8.33L6.13 8.33Q6.42 8.16 6.72 8.02Q7.03 7.88 7.32 7.71L7.32 7.71Q7.77 7.43 8.26 7.43L8.26 7.43Q8.59 7.43 8.84 7.55L8.84 7.55Q9.04 7.63 9.20 7.88L9.20 7.88L10.68 9.72Q9.74 10.79 8.79 11.40L8.79 11.40Q7.69 12.10 6.62 12.47L6.62 12.47Q5.60 12.80 4.28 13.00L4.28 13.00Q3.26 13.17 1.99 13.17L1.99 13.17Q-0.27 13.17-2.07 12.47L-2.07 12.47Q-3.87 11.77-5.35 10.30L-5.35 10.30Q-6.74 8.90-7.56 6.77L-7.56 6.77Q-8.34 4.72-8.34 1.89L-8.34 1.89Q-8.34-0.16-7.65-2.13L-7.65-2.13Q-6.99-3.97-5.64-5.45L-5.64-5.45Q-4.37-6.84-2.48-7.66L-2.48-7.66Q-0.59-8.48 1.78-8.48L1.78-8.48ZM1.87-4.87Q-0.31-4.87-1.58-3.60L-1.58-3.60Q-2.81-2.37-3.18-0.08L-3.18-0.08L6.33-0.08Q6.33-0.94 6.05-1.92L6.05-1.92Q5.80-2.70 5.23-3.44L5.23-3.44Q4.69-4.09 3.83-4.46L3.83-4.46Q2.89-4.87 1.87-4.87L1.87-4.87ZM40.53 0.46Q41.10 1.65 41.10 3.61L41.10 3.61Q41.10 5.50 40.41 7.34L40.41 7.34Q39.71 9.15 38.40 10.42L38.40 10.42Q37.08 11.73 35.16 12.47L35.16 12.47Q33.27 13.21 30.81 13.21L30.81 13.21L30.20 13.21Q26.30 13.21 21.71 11.65L21.71 11.65L21.71 4.02L24.05 4.02Q24.83 4.02 24.99 4.76L24.99 4.76Q25.11 5.29 25.36 8.16L25.36 8.16Q27.08 8.70 30.98 8.70L30.98 8.70Q33.31 8.70 34.62 7.59L34.62 7.59Q35.90 6.48 35.90 4.39L35.90 4.39Q35.90 3.24 35.32 2.47L35.32 2.47Q34.79 1.73 33.76 1.24L33.76 1.24Q32.74 0.70 31.59 0.37L31.59 0.37L30.69 0.13L29.09-0.36Q27.86-0.77 26.59-1.35L26.59-1.35Q25.44-1.88 24.37-2.86L24.37-2.86Q23.39-3.77 22.86-5.16L22.86-5.16Q22.24-6.68 22.24-8.56L22.24-8.56Q22.24-10.24 22.90-11.72L22.90-11.72Q23.51-13.28 24.78-14.47L24.78-14.47Q25.97-15.57 27.82-16.35L27.82-16.35Q29.62-17.09 31.96-17.09L31.96-17.09Q36.26-17.09 40.45-15.41L40.45-15.41L40.45-7.83L38.11-7.83Q37.37-7.83 37.17-8.60L37.17-8.60Q37.04-9.18 36.80-11.93L36.80-11.93Q35.32-12.58 32.00-12.58L32.00-12.58Q30.89-12.58 30.03-12.34L30.03-12.34Q29.09-12.01 28.60-11.56L28.60-11.56Q27.98-11.02 27.70-10.37L27.70-10.37Q27.41-9.75 27.41-8.85L27.41-8.85Q27.41-7.87 28.02-7.13L28.02-7.13Q28.64-6.39 29.54-5.94L29.54-5.94Q30.73-5.37 31.75-5.04L31.75-5.04Q32.16-4.91 34.26-4.22L34.26-4.22Q35.12-3.93 36.76-3.19L36.76-3.19Q37.99-2.66 38.97-1.72L38.97-1.72Q40.04-0.73 40.53 0.46L40.53 0.46ZM52.75-8.48Q55.00-8.48 57.01-7.70L57.01-7.70Q58.98-6.92 60.29-5.57L60.29-5.57Q61.60-4.22 62.34-2.17L62.34-2.17Q63.08-0.16 63.08 2.30L63.08 2.30Q63.08 4.76 62.34 6.81L62.34 6.81Q61.56 8.90 60.29 10.26L60.29 10.26Q58.94 11.69 57.01 12.43L57.01 12.43Q55.12 13.17 52.75 13.17L52.75 13.17Q50.37 13.17 48.44 12.43L48.44 12.43Q46.51 11.69 45.16 10.26L45.16 10.26Q43.73 8.78 43.03 6.81L43.03 6.81Q42.29 4.76 42.29 2.30L42.29 2.30Q42.29-0.16 43.03-2.17L43.03-2.17Q43.73-4.05 45.16-5.57L45.16-5.57Q46.47-6.92 48.44-7.70L48.44-7.70Q50.45-8.48 52.75-8.48L52.75-8.48ZM52.75 9.27Q55.37 9.27 56.60 7.51L56.60 7.51Q57.87 5.66 57.87 2.34L57.87 2.34Q57.87-0.98 56.60-2.82L56.60-2.82Q55.37-4.63 52.75-4.63L52.75-4.63Q50.12-4.63 48.81-2.82L48.81-2.82Q47.50-1.02 47.50 2.38L47.50 2.38Q47.50 5.70 48.81 7.51L48.81 7.51Q50.08 9.27 52.75 9.27L52.75 9.27ZM74.76 9.19Q75.79 9.44 75.79 10.46L75.79 10.46L75.79 12.88L64.51 12.88L64.51 10.46Q64.51 9.44 65.54 9.19L65.54 9.19L65.78 9.15L66.40 9.03L67.63 8.82L67.63-13.52L66.40-13.73Q66.19-13.77 66.05-13.81Q65.91-13.85 65.78-13.85L65.78-13.85L65.54-13.89Q64.51-14.14 64.51-15.16L64.51-15.16L64.51-17.58L72.67-17.58L72.67 8.82L73.90 9.03L74.52 9.15L74.76 9.19ZM100.51 9.19Q101.54 9.44 101.54 10.46L101.54 10.46L101.54 12.88L95.35 12.88Q94.40 12.88 94.07 11.94L94.07 11.94L93.71 10.26Q93.01 10.95 92.35 11.49L92.35 11.49Q91.74 11.98 90.88 12.39L90.88 12.39Q90.06 12.76 89.15 13.00L89.15 13.00Q88.13 13.21 87.23 13.21L87.23 13.21Q85.55 13.21 84.15 12.63L84.15 12.63Q82.96 12.14 81.94 10.95L81.94 10.95Q81.12 10.01 80.59 8.45L80.59 8.45Q80.13 6.89 80.13 5.21L80.13 5.21L80.13-4.09L78.04-4.46Q77.02-4.71 77.02-5.73L77.02-5.73L77.02-8.15L85.18-8.15L85.18 5.21Q85.18 7.10 86.08 8.21L86.08 8.21Q86.94 9.23 88.74 9.23L88.74 9.23Q89.97 9.23 91.20 8.66L91.20 8.66Q92.31 8.12 93.38 7.06L93.38 7.06L93.38-4.09Q92.23-4.30 91.86-4.36Q91.49-4.42 91.33-4.46L91.33-4.46Q90.30-4.71 90.30-5.73L90.30-5.73L90.30-8.15L98.46-8.15L98.46 8.82L100.51 9.19ZM111.66 13.21Q108.92 13.21 107.44 11.65L107.44 11.65Q105.96 10.09 105.96 7.39L105.96 7.39L105.96-4.34L103.83-4.34Q103.50-4.34 103.14-4.63L103.14-4.63Q102.81-4.87 102.81-5.41L102.81-5.41L102.81-7.46L106.21-7.99L107.28-13.73Q107.32-14.10 107.65-14.34L107.65-14.34Q107.97-14.59 108.42-14.59L108.42-14.59L111.05-14.59L111.05-7.95L116.58-7.95L116.58-4.34L111.05-4.34L111.05 7.06Q111.05 8.00 111.54 8.57L111.54 8.57Q112.03 9.11 112.85 9.11L112.85 9.11Q113.43 9.11 113.63 9.03L113.63 9.03L114.16 8.78L114.62 8.53Q114.74 8.45 114.94 8.45L114.94 8.45Q115.27 8.45 115.35 8.53L115.35 8.53L115.64 8.86L117.16 11.32Q116.09 12.18 114.62 12.72L114.62 12.72Q113.22 13.21 111.66 13.21L111.66 13.21ZM127.33-14.30Q127.33-13.73 127.04-13.07L127.04-13.07Q126.79-12.50 126.34-12.05L126.34-12.05Q125.85-11.56 125.32-11.35L125.32-11.35Q124.70-11.11 124.05-11.11L124.05-11.11Q123.39-11.11 122.77-11.35L122.77-11.35Q122.28-11.56 121.79-12.05L121.79-12.05Q121.34-12.50 121.09-13.07L121.09-13.07Q120.85-13.65 120.85-14.30L120.85-14.30Q120.85-14.96 121.09-15.57L121.09-15.57Q121.30-16.11 121.79-16.60L121.79-16.60Q122.24-17.05 122.77-17.26L122.77-17.26Q123.51-17.54 124.05-17.54L124.05-17.54Q124.58-17.54 125.32-17.26L125.32-17.26Q125.93-17.01 126.34-16.60L126.34-16.60Q126.83-16.11 127.04-15.57L127.04-15.57Q127.33-14.88 127.33-14.30L127.33-14.30ZM128.64 9.19Q129.66 9.44 129.66 10.46L129.66 10.46L129.66 12.88L118.39 12.88L118.39 10.46Q118.39 9.44 119.41 9.19L119.41 9.19L119.66 9.15L120.27 9.03L121.50 8.82L121.50-4.09L120.27-4.30Q120.07-4.34 119.92-4.38Q119.78-4.42 119.66-4.42L119.66-4.42L119.41-4.46Q118.39-4.71 118.39-5.73L118.39-5.73L118.39-8.15L126.55-8.15L126.55 8.82L127.78 9.03Q127.98 9.07 128.12 9.11Q128.27 9.15 128.39 9.15L128.39 9.15L128.64 9.19ZM141.43-8.48Q143.68-8.48 145.69-7.70L145.69-7.70Q147.66-6.92 148.97-5.57L148.97-5.57Q150.29-4.22 151.02-2.17L151.02-2.17Q151.76-0.16 151.76 2.30L151.76 2.30Q151.76 4.76 151.02 6.81L151.02 6.81Q150.24 8.90 148.97 10.26L148.97 10.26Q147.62 11.69 145.69 12.43L145.69 12.43Q143.81 13.17 141.43 13.17L141.43 13.17Q139.05 13.17 137.12 12.43L137.12 12.43Q135.20 11.69 133.84 10.26L133.84 10.26Q132.41 8.78 131.71 6.81L131.71 6.81Q130.97 4.76 130.97 2.30L130.97 2.30Q130.97-0.16 131.71-2.17L131.71-2.17Q132.41-4.05 133.84-5.57L133.84-5.57Q135.16-6.92 137.12-7.70L137.12-7.70Q139.13-8.48 141.43-8.48L141.43-8.48ZM141.43 9.27Q144.05 9.27 145.28 7.51L145.28 7.51Q146.55 5.66 146.55 2.34L146.55 2.34Q146.55-0.98 145.28-2.82L145.28-2.82Q144.05-4.63 141.43-4.63L141.43-4.63Q138.81-4.63 137.49-2.82L137.49-2.82Q136.18-1.02 136.18 2.38L136.18 2.38Q136.18 5.70 137.49 7.51L137.49 7.51Q138.76 9.27 141.43 9.27L141.43 9.27ZM176.73 9.19Q177.76 9.44 177.76 10.46L177.76 10.46L177.76 12.88L169.60 12.88L169.60-0.49Q169.60-2.37 168.69-3.48L168.69-3.48Q167.83-4.55 166.03-4.55L166.03-4.55Q164.72-4.55 163.57-3.93L163.57-3.93Q162.34-3.27 161.40-2.33L161.40-2.33L161.40 8.82L162.59 9.03L163.20 9.15L163.45 9.19Q164.47 9.44 164.47 10.46L164.47 10.46L164.47 12.88L153.24 12.88L153.24 10.46Q153.24 9.44 154.26 9.19L154.26 9.19L154.51 9.15L155.12 9.03L156.31 8.82L156.31-4.09L155.12-4.30Q154.92-4.34 154.77-4.38Q154.63-4.42 154.51-4.42L154.51-4.42L154.26-4.46Q153.24-4.71 153.24-5.73L153.24-5.73L153.24-8.15L159.43-8.15Q160.37-8.15 160.70-7.21L160.70-7.21L161.07-5.57Q161.64-6.23 162.38-6.76L162.38-6.76Q162.95-7.21 163.90-7.66L163.90-7.66Q164.96-8.15 165.58-8.28L165.58-8.28Q166.60-8.48 167.55-8.48L167.55-8.48Q169.35-8.48 170.62-7.91L170.62-7.91Q171.81-7.42 172.84-6.27L172.84-6.27Q173.70-5.24 174.19-3.73L174.19-3.73Q174.64-2.37 174.64-0.49L174.64-0.49L174.64 8.82L175.87 9.03Q176.07 9.07 176.22 9.11Q176.36 9.15 176.48 9.15L176.48 9.15L176.73 9.19ZM193.99 4.02Q194.44 5.01 194.44 6.20L194.44 6.20Q194.44 7.67 193.87 9.03L193.87 9.03Q193.29 10.30 192.27 11.24L192.27 11.24Q191.16 12.22 189.65 12.67L189.65 12.67Q188.17 13.21 186.04 13.21L186.04 13.21Q184.19 13.21 182.41 12.88Q180.63 12.55 179.35 12.06L179.35 12.06L179.35 6.11L181.73 6.11Q182.47 6.11 182.68 6.89L182.68 6.89Q182.76 7.34 182.96 9.31L182.96 9.31Q184.07 9.64 186.28 9.64L186.28 9.64Q187.14 9.64 187.84 9.44L187.84 9.44Q188.54 9.19 188.91 8.86L188.91 8.86Q189.40 8.45 189.52 8.08L189.52 8.08Q189.69 7.63 189.69 7.10L189.69 7.10Q189.69 6.36 189.28 5.91L189.28 5.91Q188.91 5.50 188.09 5.09L188.09 5.09Q187.31 4.72 186.45 4.47L186.45 4.47L184.52 3.86Q183.86 3.65 182.63 3.08L182.63 3.08Q181.65 2.63 180.95 1.97L180.95 1.97Q180.22 1.32 179.81 0.33L179.81 0.33Q179.35-0.69 179.35-2.04L179.35-2.04Q179.35-3.36 179.85-4.50L179.85-4.50Q180.34-5.65 181.36-6.55L181.36-6.55Q182.39-7.46 183.86-7.95L183.86-7.95Q185.46-8.48 187.27-8.48L187.27-8.48Q188.83-8.48 190.01-8.26Q191.20-8.03 193.42-7.37L193.42-7.37L193.38-7.37L193.38-1.43L191.04-1.43Q190.30-1.43 190.10-2.21L190.10-2.21Q189.97-2.74 189.81-4.50L189.81-4.50Q188.87-4.79 187.35-4.79L187.35-4.79Q185.87-4.79 185.01-4.18L185.01-4.18Q184.15-3.56 184.15-2.50L184.15-2.50Q184.15-1.88 184.60-1.35L184.60-1.35Q184.93-0.98 185.75-0.57L185.75-0.57Q186.69-0.12 187.39 0.09L187.39 0.09Q187.72 0.17 189.28 0.66L189.28 0.66Q190.06 0.91 191.20 1.44L191.20 1.44Q192.19 1.89 192.84 2.51L192.84 2.51Q193.58 3.12 193.99 4.02L193.99 4.02Z"/></g>
</svg>